<?xml version="1.0" encoding="UTF-8" standalone="no"?>
<svg
   xmlns:dc="http://purl.org/dc/elements/1.1/"
   xmlns:cc="http://creativecommons.org/ns#"
   xmlns:rdf="http://www.w3.org/1999/02/22-rdf-syntax-ns#"
   xmlns:svg="http://www.w3.org/2000/svg"
   xmlns="http://www.w3.org/2000/svg"
   xmlns:sodipodi="http://sodipodi.sourceforge.net/DTD/sodipodi-0.dtd"
   xmlns:inkscape="http://www.inkscape.org/namespaces/inkscape"
   version="1.1"
   x="0px"
   y="0px"
   viewBox="0 0 64.6 57.75"
   style="enable-background:new 0 0 64.6 46.2;"
   xml:space="preserve"
   id="svg12"
   sodipodi:docname="email.svg"
   inkscape:version="1.0.2-2 (e86c870879, 2021-01-15)"><metadata
     id="metadata18"><rdf:RDF><cc:Work
         rdf:about=""><dc:format>image/svg+xml</dc:format><dc:type
           rdf:resource="http://purl.org/dc/dcmitype/StillImage" /></cc:Work></rdf:RDF></metadata><defs
     id="defs16" /><sodipodi:namedview
     pagecolor="#ffffff"
     bordercolor="#666666"
     borderopacity="1"
     objecttolerance="10"
     gridtolerance="10"
     guidetolerance="10"
     inkscape:pageopacity="0"
     inkscape:pageshadow="2"
     inkscape:window-width="1080"
     inkscape:window-height="1857"
     id="namedview14"
     showgrid="false"
     inkscape:zoom="3.0675957"
     inkscape:cx="-0.70018125"
     inkscape:cy="93.9279"
     inkscape:window-x="-8"
     inkscape:window-y="-8"
     inkscape:window-maximized="1"
     inkscape:current-layer="svg12" /><g
     id="g6"
     style="fill:#ffffff;fill-opacity:1"><g
       id="g4"
       style="fill:#ffffff;fill-opacity:1"><path
         d="M57.7,0H6.9C3.1,0,0,3.1,0,6.9v32.3c0,3.8,3.1,6.9,6.9,6.9h50.8c3.8,0,6.9-3.1,6.9-6.9V6.9C64.6,3.1,61.5,0,57.7,0z     M42.5,22.5L60,13.1v21.7L42.5,22.5z M6.9,4.6h50.8c1.3,0,2.3,1,2.3,2.3v0.9L32.3,22.8L4.6,7.8V6.9C4.6,5.6,5.6,4.6,6.9,4.6    L6.9,4.6z M4.6,13.1l17.5,9.4L4.6,34.8V13.1z M57.7,41.5H6.9c-0.9,0-1.6-0.5-2-1.3L26.7,25l4.5,2.4c0.7,0.4,1.5,0.4,2.2,0l4.5-2.4    l21.8,15.3C59.4,41,58.6,41.5,57.7,41.5z"
         id="path2"
         style="fill:#ffffff;fill-opacity:1" /></g></g></svg>
