<?xml version="1.0" encoding="UTF-8" standalone="no"?>
<svg
   xmlns:dc="http://purl.org/dc/elements/1.1/"
   xmlns:cc="http://creativecommons.org/ns#"
   xmlns:rdf="http://www.w3.org/1999/02/22-rdf-syntax-ns#"
   xmlns:svg="http://www.w3.org/2000/svg"
   xmlns="http://www.w3.org/2000/svg"
   xmlns:sodipodi="http://sodipodi.sourceforge.net/DTD/sodipodi-0.dtd"
   xmlns:inkscape="http://www.inkscape.org/namespaces/inkscape"
   viewBox="0 0 32 40"
   version="1.1"
   xml:space="preserve"
   style=""
   x="0px"
   y="0px"
   fill-rule="evenodd"
   clip-rule="evenodd"
   stroke-linejoin="round"
   stroke-miterlimit="2"
   id="svg10"
   sodipodi:docname="phone.svg"
   inkscape:version="1.0.2-2 (e86c870879, 2021-01-15)"><metadata
     id="metadata16"><rdf:RDF><cc:Work
         rdf:about=""><dc:format>image/svg+xml</dc:format><dc:type
           rdf:resource="http://purl.org/dc/dcmitype/StillImage" /></cc:Work></rdf:RDF></metadata><defs
     id="defs14" /><sodipodi:namedview
     pagecolor="#ffffff"
     bordercolor="#666666"
     borderopacity="1"
     objecttolerance="10"
     gridtolerance="10"
     guidetolerance="10"
     inkscape:pageopacity="0"
     inkscape:pageshadow="2"
     inkscape:window-width="1080"
     inkscape:window-height="1857"
     id="namedview12"
     showgrid="false"
     inkscape:zoom="3.75625"
     inkscape:cx="6.2811809"
     inkscape:cy="16.916058"
     inkscape:window-x="-8"
     inkscape:window-y="-8"
     inkscape:window-maximized="1"
     inkscape:current-layer="svg10"
     inkscape:document-rotation="0" /><g
     transform="matrix(0.32841752,0,0,0.32841752,-1.4480861,0)"
     id="g4"
     style="fill:#ffffff;fill-opacity:1;stroke-width:0.805629"><path
       d="m 37.109,0 c -3.839,0 -7.517,1.559 -10.217,4.296 -2.7,2.738 -4.207,6.441 -4.207,10.298 v 91.764 c 0,3.851 1.507,7.553 4.207,10.291 2.7,2.737 6.378,4.296 10.217,4.296 h 46.727 c 3.839,0 7.517,-1.559 10.217,-4.296 2.7,-2.738 4.207,-6.44 4.207,-10.291 V 14.594 C 98.26,10.737 96.753,7.034 94.053,4.296 91.353,1.559 87.675,0 83.836,0 Z m 0,7.559 h 46.727 c 1.81,0 3.534,0.725 4.828,2.037 1.294,1.313 2.037,3.109 2.037,4.998 v 91.764 c 0,1.876 -0.743,3.678 -2.037,4.99 -1.294,1.313 -3.018,2.038 -4.828,2.038 H 37.109 c -1.81,0 -3.534,-0.725 -4.828,-2.038 -1.294,-1.312 -2.037,-3.114 -2.037,-4.99 V 14.594 c 0,-1.889 0.743,-3.685 2.037,-4.998 1.294,-1.312 3.018,-2.037 4.828,-2.037 z m 0.694,7.566 c -2.074,-0.007 -3.786,1.692 -3.795,3.765 v 68.047 c 0.009,2.073 1.721,3.772 3.795,3.764 h 45.339 c 2.074,0.008 3.786,-1.691 3.795,-3.764 V 18.89 c -0.009,-2.073 -1.721,-3.772 -3.795,-3.765 z m 3.764,7.56 h 37.81 V 83.142 H 41.567 Z M 56.693,98.26 c -2.075,0 -3.783,1.708 -3.783,3.784 0,2.075 1.708,3.783 3.783,3.783 h 7.559 c 2.075,0 3.783,-1.708 3.783,-3.783 0,-2.076 -1.708,-3.784 -3.783,-3.784 z"
       fill-rule="nonzero"
       id="path2"
       style="fill:#ffffff;fill-opacity:1;stroke-width:142.417" /></g></svg>
